<svg width="37" height="24" viewBox="0 0 37 24" fill="none" xmlns="http://www.w3.org/2000/svg">
<g clip-path="url(#clip0_864_1127)">
<path d="M25.0665 14.8912C25.0665 18.6549 21.9639 21.7062 18.1377 21.7062C14.3116 21.7062 11.209 18.6549 11.209 14.8912C11.2075 13.4658 11.6601 12.077 12.5013 10.9262L13.7661 9.60326L17.4051 5.79658L18.1289 5.03943L18.8224 5.76356L22.4601 9.56493L23.8063 10.9713C24.6269 12.1136 25.0677 13.4848 25.0665 14.8912Z" fill="#367852"/>
<path d="M20.9354 0L18.1339 2.93012L15.3273 0H20.9354Z" fill="#367852"/>
<path d="M17.5586 24H0L9.39361 14.1753C9.37553 14.4112 9.36649 14.6497 9.36649 14.8909C9.36649 19.6779 12.9703 23.6058 17.5586 24Z" fill="#367852"/>
<path d="M36.2748 24H19.0806C23.6692 23.6058 27.2727 19.678 27.2727 14.891C27.2727 14.7898 27.2727 14.689 27.2677 14.5887L36.2748 24Z" fill="#367852"/>
<path d="M35.6701 21.2373L26.8128 11.9905L21.3482 6.28567L19.1407 3.9812L22.3802 0.592896L35.6701 21.2373Z" fill="#367852"/>
<path d="M17.1225 3.98773L14.6898 6.53221L10.0478 11.3868L1.02161 20.8272L13.9217 0.643066L17.1225 3.98773Z" fill="#367852"/>
</g>
<defs>
<clipPath id="clip0_864_1127">
<rect width="36.2748" height="24" fill="white"/>
</clipPath>
</defs>
</svg>
