<svg xmlns="http://www.w3.org/2000/svg" viewBox="0 0 24 24" width="24" height="24">
    <path d="M12 2C10.9 2 10 2.9 10 4s.9 2 2 2 2-.9 2-2-.9-2-2-2zm6.5 6c-.8 0-1.5.3-2.1.8-.6.5-1.1 1.2-1.4 2-.3.8-.5 1.7-.5 2.7 0 1.1.2 2.1.5 3 .3.9.8 1.7 1.4 2.3.6.6 1.3 1.1 2.1 1.4.8.3 1.6.5 2.5.5.9 0 1.7-.2 2.5-.5.8-.3 1.5-.8 2.1-1.4.6-.6 1.1-1.4 1.4-2.3.3-.9.5-1.9.5-3 0-1-.2-1.9-.5-2.7-.3-.8-.8-1.5-1.4-2-.6-.5-1.3-.8-2.1-.8zm-13 0c-.8 0-1.5.3-2.1.8-.6.5-1.1 1.2-1.4 2-.3.8-.5 1.7-.5 2.7 0 1.1.2 2.1.5 3 .3.9.8 1.7 1.4 2.3.6.6 1.3 1.1 2.1 1.4.8.3 1.6.5 2.5.5.9 0 1.7-.2 2.5-.5.8-.3 1.5-.8 2.1-1.4.6-.6 1.1-1.4 1.4-2.3.3-.9.5-1.9.5-3 0-1-.2-1.9-.5-2.7-.3-.8-.8-1.5-1.4-2-.6-.5-1.3-.8-2.1-.8z"/>
</svg>