<svg width="16" height="16" viewBox="0 0 16 16" fill="none" xmlns="http://www.w3.org/2000/svg">
<path d="M11.5 13.5C11.5 13.6326 11.4473 13.7598 11.3536 13.8536C11.2598 13.9473 11.1326 14 11 14H5.00003C4.86742 14 4.74024 13.9473 4.64647 13.8536C4.55271 13.7598 4.50003 13.6326 4.50003 13.5C4.50003 13.3674 4.55271 13.2402 4.64647 13.1465C4.74024 13.0527 4.86742 13 5.00003 13H11C11.1326 13 11.2598 13.0527 11.3536 13.1465C11.4473 13.2402 11.5 13.3674 11.5 13.5ZM14.3538 7.14628L8.35378 1.14628C8.30734 1.09979 8.2522 1.06291 8.1915 1.03775C8.1308 1.01259 8.06574 0.999634 8.00003 0.999634C7.93432 0.999634 7.86926 1.01259 7.80856 1.03775C7.74786 1.06291 7.69271 1.09979 7.64628 1.14628L1.64628 7.14628C1.57627 7.2162 1.52859 7.30533 1.50926 7.40237C1.48994 7.49942 1.49984 7.60001 1.53772 7.69142C1.57559 7.78283 1.63974 7.86095 1.72204 7.91589C1.80433 7.97082 1.90108 8.0001 2.00003 8.00003H4.50003V9.50003C4.50003 9.63264 4.55271 9.75981 4.64647 9.85358C4.74024 9.94735 4.86742 10 5.00003 10H11C11.1326 10 11.2598 9.94735 11.3536 9.85358C11.4473 9.75981 11.5 9.63264 11.5 9.50003V8.00003H14C14.099 8.0001 14.1957 7.97082 14.278 7.91589C14.3603 7.86095 14.4245 7.78283 14.4623 7.69142C14.5002 7.60001 14.5101 7.49942 14.4908 7.40237C14.4715 7.30533 14.4238 7.2162 14.3538 7.14628ZM11 11H5.00003C4.86742 11 4.74024 11.0527 4.64647 11.1465C4.55271 11.2402 4.50003 11.3674 4.50003 11.5C4.50003 11.6326 4.55271 11.7598 4.64647 11.8536C4.74024 11.9473 4.86742 12 5.00003 12H11C11.1326 12 11.2598 11.9473 11.3536 11.8536C11.4473 11.7598 11.5 11.6326 11.5 11.5C11.5 11.3674 11.4473 11.2402 11.3536 11.1465C11.2598 11.0527 11.1326 11 11 11Z" fill="#D1D1D1"/>
</svg>
