<svg width="12" height="13" viewBox="0 0 12 13" fill="none" xmlns="http://www.w3.org/2000/svg">
<path d="M10.5 10.625C10.5 10.7245 10.4605 10.8198 10.3902 10.8902C10.3198 10.9605 10.2245 11 10.125 11H1.875C1.77554 11 1.68016 10.9605 1.60984 10.8902C1.53951 10.8198 1.5 10.7245 1.5 10.625C1.5 10.5255 1.53951 10.4302 1.60984 10.3598C1.68016 10.2895 1.77554 10.25 1.875 10.25H10.125C10.2245 10.25 10.3198 10.2895 10.3902 10.3598C10.4605 10.4302 10.5 10.5255 10.5 10.625ZM3.75 8.75C3.79926 8.75004 3.84805 8.74037 3.89357 8.72155C3.93909 8.70273 3.98046 8.67513 4.01531 8.64031L8.625 4.03016V7.625C8.625 7.72446 8.66451 7.81984 8.73483 7.89017C8.80516 7.96049 8.90054 8 9 8C9.09946 8 9.19484 7.96049 9.26517 7.89017C9.33549 7.81984 9.375 7.72446 9.375 7.625V3.125C9.375 3.02554 9.33549 2.93016 9.26517 2.85984C9.19484 2.78951 9.09946 2.75 9 2.75L4.5 2.75C4.40054 2.75 4.30516 2.78951 4.23484 2.85984C4.16451 2.93016 4.125 3.02554 4.125 3.125C4.125 3.22446 4.16451 3.31984 4.23484 3.39016C4.30516 3.46049 4.40054 3.5 4.5 3.5L8.09484 3.5L3.48469 8.10969C3.43218 8.16213 3.39642 8.22898 3.38193 8.30176C3.36743 8.37454 3.37486 8.44999 3.40327 8.51855C3.43167 8.5871 3.47978 8.64569 3.54151 8.6869C3.60323 8.7281 3.67579 8.75006 3.75 8.75Z" fill="#888888"/>
</svg>
