<svg width="16" height="16" viewBox="0 0 16 16" fill="none" xmlns="http://www.w3.org/2000/svg">
<path d="M14.4619 8.30875C14.4241 8.21738 14.36 8.13928 14.2778 8.08432C14.1956 8.02936 14.0989 8.00002 14 8H11.5V6.5C11.5 6.36739 11.4473 6.24021 11.3536 6.14645C11.2598 6.05268 11.1326 6 11 6H5.00003C4.86742 6 4.74024 6.05268 4.64647 6.14645C4.55271 6.24021 4.50003 6.36739 4.50003 6.5V8H2.00003C1.90108 7.99992 1.80433 8.0292 1.72204 8.08414C1.63974 8.13908 1.57559 8.21719 1.53772 8.30861C1.49984 8.40002 1.48994 8.50061 1.50926 8.59765C1.52859 8.6947 1.57627 8.78382 1.64628 8.85375L7.64628 14.8538C7.69271 14.9002 7.74786 14.9371 7.80856 14.9623C7.86926 14.9874 7.93432 15.0004 8.00003 15.0004C8.06574 15.0004 8.1308 14.9874 8.1915 14.9623C8.2522 14.9371 8.30734 14.9002 8.35378 14.8538L14.3538 8.85375C14.4237 8.78379 14.4713 8.69466 14.4905 8.59765C14.5098 8.50064 14.4998 8.4001 14.4619 8.30875ZM8.00003 13.7931L3.2069 9H5.00003C5.13264 9 5.25981 8.94732 5.35358 8.85355C5.44735 8.75979 5.50003 8.63261 5.50003 8.5V7H10.5V8.5C10.5 8.63261 10.5527 8.75979 10.6465 8.85355C10.7402 8.94732 10.8674 9 11 9H12.7932L8.00003 13.7931ZM4.50003 2.5C4.50003 2.36739 4.55271 2.24021 4.64647 2.14645C4.74024 2.05268 4.86742 2 5.00003 2H11C11.1326 2 11.2598 2.05268 11.3536 2.14645C11.4473 2.24021 11.5 2.36739 11.5 2.5C11.5 2.63261 11.4473 2.75979 11.3536 2.85355C11.2598 2.94732 11.1326 3 11 3H5.00003C4.86742 3 4.74024 2.94732 4.64647 2.85355C4.55271 2.75979 4.50003 2.63261 4.50003 2.5ZM4.50003 4.5C4.50003 4.36739 4.55271 4.24021 4.64647 4.14645C4.74024 4.05268 4.86742 4 5.00003 4H11C11.1326 4 11.2598 4.05268 11.3536 4.14645C11.4473 4.24021 11.5 4.36739 11.5 4.5C11.5 4.63261 11.4473 4.75979 11.3536 4.85355C11.2598 4.94732 11.1326 5 11 5H5.00003C4.86742 5 4.74024 4.94732 4.64647 4.85355C4.55271 4.75979 4.50003 4.63261 4.50003 4.5Z" fill="#888888"/>
</svg>
