<svg width="16" height="16" viewBox="0 0 16 16" fill="none" xmlns="http://www.w3.org/2000/svg">
<path d="M13.5 3H2.50002C2.2348 3 1.98045 3.10536 1.79291 3.29289C1.60537 3.48043 1.50002 3.73478 1.50002 4V14C1.49889 14.1906 1.55277 14.3775 1.65521 14.5382C1.75764 14.699 1.90427 14.8268 2.07752 14.9062C2.2099 14.9677 2.35406 14.9997 2.50002 15C2.73477 14.9994 2.96173 14.9157 3.14064 14.7638C3.14362 14.7618 3.14635 14.7595 3.14877 14.7569L5.15627 13H13.5C13.7652 13 14.0196 12.8946 14.2071 12.7071C14.3947 12.5196 14.5 12.2652 14.5 12V4C14.5 3.73478 14.3947 3.48043 14.2071 3.29289C14.0196 3.10536 13.7652 3 13.5 3ZM13.5 12H5.15627C4.92078 11.9999 4.69281 12.0829 4.51252 12.2344L4.50502 12.2413L2.50002 14V4H13.5V12ZM7.25002 8C7.25002 7.85166 7.294 7.70666 7.37642 7.58332C7.45883 7.45999 7.57596 7.36386 7.71301 7.30709C7.85005 7.25032 8.00085 7.23547 8.14634 7.26441C8.29182 7.29335 8.42546 7.36478 8.53035 7.46967C8.63524 7.57456 8.70667 7.7082 8.73561 7.85368C8.76455 7.99917 8.74969 8.14997 8.69293 8.28701C8.63616 8.42406 8.54003 8.54119 8.4167 8.6236C8.29336 8.70601 8.14835 8.75 8.00002 8.75C7.80111 8.75 7.61034 8.67098 7.46969 8.53033C7.32904 8.38968 7.25002 8.19891 7.25002 8ZM4.50002 8C4.50002 7.85166 4.544 7.70666 4.62642 7.58332C4.70883 7.45999 4.82596 7.36386 4.963 7.30709C5.10005 7.25032 5.25085 7.23547 5.39634 7.26441C5.54182 7.29335 5.67546 7.36478 5.78035 7.46967C5.88524 7.57456 5.95667 7.7082 5.98561 7.85368C6.01455 7.99917 5.99969 8.14997 5.94293 8.28701C5.88616 8.42406 5.79003 8.54119 5.6667 8.6236C5.54336 8.70601 5.39835 8.75 5.25002 8.75C5.05111 8.75 4.86034 8.67098 4.71969 8.53033C4.57904 8.38968 4.50002 8.19891 4.50002 8ZM10 8C10 7.85166 10.044 7.70666 10.1264 7.58332C10.2088 7.45999 10.326 7.36386 10.463 7.30709C10.6 7.25032 10.7508 7.23547 10.8963 7.26441C11.0418 7.29335 11.1755 7.36478 11.2803 7.46967C11.3852 7.57456 11.4567 7.7082 11.4856 7.85368C11.5145 7.99917 11.4997 8.14997 11.4429 8.28701C11.3862 8.42406 11.29 8.54119 11.1667 8.6236C11.0434 8.70601 10.8984 8.75 10.75 8.75C10.5511 8.75 10.3603 8.67098 10.2197 8.53033C10.079 8.38968 10 8.19891 10 8Z" fill="#888888"/>
</svg>
