<svg xmlns="http://www.w3.org/2000/svg" width="24" height="16" viewBox="0 0 24 24" fill="none" stroke="#d1d1d1" stroke-width="2" stroke-linecap="round" stroke-linejoin="round" class="feather feather-eye-off">
    <path d="M17.94 17.94A10.94 10.94 0 0 1 12 19c-5 0-9.27-3.11-11-7.5a11.07 11.07 0 0 1 5-5.5"/>
    <path d="M1 1l22 22"/>
    <path d="M9.88 9.88A3 3 0 0 0 12 15a3 3 0 0 0 2.12-.88"/>
    <path d="M14.12 14.12A3 3 0 0 0 12 9a3 3 0 0 0-2.12.88"/>
    <path d="M9.88 9.88L1 1"/>
    <path d="M14.12 14.12L23 23"/>
</svg>