<svg width="101" height="93" viewBox="0 0 101 93" fill="none" xmlns="http://www.w3.org/2000/svg">
<path d="M58.45 82.4534V85.6233C58.45 87.8033 57.7802 89.2832 56.4202 90.0532C55.0702 90.8232 53.44 90.6632 51.54 89.5632L10.0701 65.6233C8.17007 64.5233 6.53994 62.8134 5.18994 60.4734C3.83994 58.1434 3.16016 55.8834 3.16016 53.7034V50.5332C3.16016 48.2832 3.66017 46.5034 4.67017 45.2034C5.19017 44.5334 5.78998 44.0434 6.47998 43.7134L6.55005 43.6833C7.19005 43.3833 7.89994 43.2234 8.68994 43.2134C12.2599 43.2234 15.8901 43.7833 19.5701 44.8833C20.8601 45.2733 22.16 45.7232 23.47 46.2532C25.89 47.2132 28.3401 48.4133 30.8101 49.8333C34.6101 52.0333 38.35 54.7033 42.04 57.8533C45.72 61.0133 49.3502 64.6432 52.9202 68.7532C52.9502 68.7932 52.99 68.8333 53.02 68.8733C54.64 70.7933 55.9499 72.9733 56.9399 75.3833C57.9499 77.8533 58.45 80.2034 58.45 82.4534Z" stroke="#5D5D5D"/>
<path d="M78.4497 72.4534V75.6233C78.4497 77.8033 77.7799 79.2832 76.4199 80.0532L75.9897 80.2632L56.4199 90.0532C57.7799 89.2832 58.4497 87.8033 58.4497 85.6233V82.4534C58.4497 80.2034 57.9497 77.8533 56.9397 75.3833C55.9497 72.9733 54.6398 70.7933 53.0198 68.8733C52.9898 68.8333 52.9499 68.7932 52.9199 68.7532C49.3499 64.6432 45.7198 61.0133 42.0398 57.8533C38.3498 54.7033 34.6098 52.0333 30.8098 49.8333C28.3398 48.4133 25.8897 47.2132 23.4697 46.2532C22.1597 45.7232 20.8598 45.2733 19.5698 44.8833C15.8898 43.7833 12.2597 43.2234 8.6897 43.2134C7.8997 43.2234 7.1898 43.3833 6.5498 43.6833L21.4297 36.2334C22.0097 37.1934 22.6198 38.1034 23.2498 38.9434C25.4698 41.9334 27.9898 44.2433 30.8098 45.8733C34.6098 48.0633 37.8598 48.3933 40.5698 46.8433C40.5698 46.8433 40.5899 46.8332 40.6299 46.8132L40.6897 46.7832C41.4097 46.4232 45.3898 44.4433 49.5798 42.3433C49.5598 42.4433 49.5598 42.5533 49.5598 42.6633C49.5598 43.7533 49.8998 44.8933 50.5898 46.0933L57.9397 58.7532C58.6297 59.9532 59.4299 60.8133 60.3499 61.3433C61.2799 61.8733 62.0798 61.9432 62.7698 61.5532L71.5298 57.1733C71.9898 57.6933 72.4599 58.2232 72.9199 58.7532C74.5899 60.7032 75.9297 62.9233 76.9397 65.3833C77.9497 67.8533 78.4497 70.2034 78.4497 72.4534Z" stroke="#5D5D5D"/>
<path d="M78.4995 50.9535C78.4995 52.0435 78.1495 52.7834 77.4595 53.1734L71.1497 56.7733L62.7695 61.5533C62.0795 61.9433 61.2796 61.8734 60.3496 61.3434C59.4296 60.8134 58.6295 59.9533 57.9395 58.7533L50.5896 46.0934C49.8996 44.8934 49.5596 43.7534 49.5596 42.6634C49.5596 42.5534 49.5596 42.4434 49.5796 42.3434C49.6296 41.4234 49.9696 40.7935 50.5896 40.4435L50.8096 40.3333C50.9996 40.2533 51.1997 40.2035 51.4097 40.1935C51.8897 40.1635 52.4295 40.3134 52.9995 40.6334H53.0095C53.6895 41.0234 54.3096 41.6034 54.8696 42.3634C55.0596 42.6234 55.2494 42.9135 55.4294 43.2235L60.3496 51.7135L64.0195 49.5934L72.5396 44.6734L72.7595 44.5633C73.3995 44.2933 74.1495 44.4134 74.9995 44.9034C75.4695 45.1734 75.9096 45.5235 76.3196 45.9535H76.3296C76.7396 46.4035 77.1095 46.9233 77.4595 47.5133C77.7895 48.0833 78.0495 48.6535 78.2195 49.2035C78.4095 49.8035 78.4995 50.3835 78.4995 50.9435V50.9535Z" stroke="#5D5D5D"/>
<path d="M98.4995 40.9534C98.4995 42.0434 98.1495 42.7833 97.4595 43.1733L82.7695 51.5532L62.7695 61.5532L71.1497 56.7732L77.4595 53.1733C78.1495 52.7833 78.4995 52.0434 78.4995 50.9534C78.4995 50.3934 78.4095 49.8134 78.2195 49.2134C78.0495 48.6634 77.7895 48.0932 77.4595 47.5232C77.1095 46.9332 76.7396 46.4134 76.3296 45.9734H76.3196C75.9096 45.5334 75.4695 45.1833 74.9995 44.9133C74.1495 44.4233 73.3995 44.3032 72.7595 44.5732L74.8896 43.5032L79.9294 40.9934L92.5396 34.6834C93.2296 34.2834 94.0495 34.3633 94.9995 34.9133C95.9495 35.4633 96.7695 36.3332 97.4595 37.5232C98.1495 38.7132 98.4995 39.8634 98.4995 40.9534Z" stroke="#5D5D5D"/>
<path d="M79.9299 40.9934L74.8901 43.5032L72.76 44.5733L72.54 44.6834L64.02 49.6033L60.3501 51.7234L55.4299 43.2334C55.2499 42.9234 55.0601 42.6333 54.8701 42.3733C54.3101 41.6133 53.69 41.0333 53.01 40.6433H53C52.43 40.3233 51.8902 40.1734 51.4102 40.2034C51.2002 40.2134 51.0001 40.2633 50.8101 40.3433L51.27 40.1133L55.99 37.7532L63.3101 34.0933L70.5901 30.4534C71.2801 30.0534 72.09 30.1233 73.01 30.6533C73.93 31.1833 74.7399 32.0534 75.4299 33.2434L79.9299 41.0032V40.9934Z" stroke="#5D5D5D"/>
<path d="M44.6301 37.9833C44.6301 42.2933 43.3199 45.2131 40.6899 46.7831L40.6301 46.8132L40.5701 46.8432C37.8601 48.3932 34.6101 48.0632 30.8101 45.8732C27.9901 44.2432 25.47 41.9333 23.25 38.9433C22.62 38.1033 22.0099 37.1933 21.4299 36.2333C21.2999 36.0233 21.17 35.7932 21.04 35.5732C18.34 30.9032 16.98 26.3831 16.98 22.0231C16.98 17.6631 18.34 14.7133 21.04 13.1633L21.6101 12.8832C24.2001 11.6732 27.2701 12.1032 30.8101 14.1432C34.1901 16.1032 37.1402 19.0333 39.6602 22.9533C39.9702 23.4433 40.2701 23.9333 40.5701 24.4433C41.0901 25.3333 41.56 26.2232 41.97 27.1032C43.53 30.3832 44.4101 33.5833 44.5901 36.7133C44.6201 37.1333 44.6301 37.5633 44.6301 37.9833Z" stroke="#5D5D5D"/>
<path d="M64.6304 27.9834C64.6304 30.4834 64.1903 32.5132 63.3103 34.0832L55.9902 37.7434L51.2703 40.1032L50.8103 40.3332L50.5903 40.4433C49.9703 40.7933 49.6303 41.4232 49.5803 42.3432C45.3903 44.4432 41.4102 46.4232 40.6902 46.7832C43.3202 45.2132 44.6304 42.2934 44.6304 37.9834C44.6304 37.5634 44.6303 37.1334 44.5903 36.7134C44.4103 33.5834 43.5302 30.3833 41.9702 27.1033C41.5602 26.2233 41.0903 25.3333 40.5703 24.4433C40.2703 23.9333 39.9704 23.4434 39.6604 22.9634C37.1404 19.0334 34.1903 16.1033 30.8103 14.1433C27.2703 12.1033 24.2004 11.6733 21.6104 12.8833L41.0403 3.16331C43.7503 1.62331 47.0103 1.95329 50.8103 4.14329C54.6103 6.34329 57.8603 9.77334 60.5703 14.4433C63.2803 19.1133 64.6304 23.6234 64.6304 27.9834Z" stroke="#5D5D5D"/>
</svg>
