<svg xmlns="http://www.w3.org/2000/svg" viewBox="0 0 48 48" width="48px" height="48px">
    <path fill="#4285F4" d="M24 9.5c3.9 0 7.1 1.4 9.5 3.7l7-7C35.8 2.4 30.3 0 24 0 14.6 0 6.7 5.4 2.7 13.3l8.3 6.4C13.1 13.1 18 9.5 24 9.5z"/>
    <path fill="#34A853" d="M46.1 24.5c0-1.6-.1-3.1-.4-4.5H24v9h12.7c-.6 3.2-2.4 5.9-5 7.7l7.7 6C43.3 38.1 46.1 31.8 46.1 24.5z"/>
    <path fill="#FBBC05" d="M12.7 28.7c-1.1-3.2-1.1-6.6 0-9.8L4.4 12.5C1.6 17.8 1.6 24.2 4.4 29.5l8.3-6.4z"/>
    <path fill="#EA4335" d="M24 48c6.3 0 11.6-2.1 15.5-5.7l-7.7-6c-2.1 1.4-4.8 2.2-7.8 2.2-6 0-11.1-4.1-12.9-9.6l-8.3 6.4C6.7 42.6 14.6 48 24 48z"/>
</svg>