<svg width="18" height="20" viewBox="0 0 18 20" fill="none" xmlns="http://www.w3.org/2000/svg">
<path d="M14.5669 10.534C14.5581 8.90076 15.287 7.668 16.7622 6.76012C15.9368 5.56297 14.6899 4.90432 13.0434 4.77526C11.4848 4.65065 9.78127 5.69648 9.15782 5.69648C8.49925 5.69648 6.98891 4.81976 5.80347 4.81976C3.35357 4.85981 0.75 6.80018 0.75 10.7477C0.75 11.9137 0.960744 13.1182 1.38223 14.3614C1.94422 15.9947 3.97263 20 6.08886 19.9332C7.19527 19.9065 7.97678 19.1366 9.41686 19.1366C10.813 19.1366 11.5375 19.9332 12.7712 19.9332C14.905 19.9021 16.7402 16.2617 17.2759 14.6239C14.4133 13.2577 14.5669 10.6186 14.5669 10.534ZM12.0819 3.22652C13.2805 1.7846 13.1707 0.47174 13.1356 0C12.0775 0.0623053 10.8526 0.729862 10.1545 1.55318C9.38613 2.43436 8.93391 3.5247 9.0305 4.753C10.1764 4.84201 11.2214 4.24566 12.0819 3.22652Z" fill="#F6F6F6"/>
</svg>
